<svg width="363" height="379" viewBox="0 0 363 379" fill="none" xmlns="http://www.w3.org/2000/svg">
<path fill-rule="evenodd" clip-rule="evenodd" d="M224.5 0.95205C211.753 5.22305 204.964 12.057 201.446 24.16C199.199 31.891 199.904 40.9681 203.213 46.8881L205.667 51.2771L202.342 55.2001C193.042 66.1721 194.512 76.3851 206.62 84.9201L210.952 87.973L205.063 93.303C192.017 105.109 190.407 118.872 200.468 132.579L203.949 137.321L201.458 139.662C197.17 143.69 193 153.284 193 159.122C193 165.602 197.595 175.318 202.618 179.459L206.094 182.324L202.465 189.557C196.702 201.039 194.856 207.309 194.266 217.41C193.579 229.169 195.594 237.284 201.183 245.261L205.149 250.924L202.488 260.023C198.709 272.945 198.137 284.433 200.832 293.258C203.508 302.021 207.466 306.754 215.286 310.544C230.583 317.957 255.581 316.918 270.365 308.254C283.668 300.458 290.114 284.082 287.044 265.88C285.813 258.586 280.58 246.17 277.746 243.823C275.187 241.704 274.604 244.303 276.964 247.304C284.958 257.466 287.439 278.945 282.052 291.336C279.543 297.106 272.54 304.285 266.332 307.453C259.512 310.932 250.833 312.623 239.856 312.61C219.536 312.587 208.317 306.726 203.378 293.553C200.746 286.534 201.221 273.055 204.469 262.622C208.618 249.293 208.61 250.153 204.618 245.488C199.073 239.011 196.705 231.785 196.631 221.122C196.557 210.326 198.306 203.746 204.639 191.005L209.17 181.888L204.032 176.749C197.944 170.661 195.741 165.96 195.726 159.02C195.712 153.094 199.231 145.729 204.528 140.595L207.834 137.39L203.443 131.999C198.32 125.709 195.455 117.393 196.479 111.788C197.76 104.778 204.81 95.724 213.336 90.137C214.801 89.177 216 88.105 216 87.755C216 87.405 213.974 86.044 211.499 84.731C209.023 83.417 205.198 80.39 202.999 78.005C199.618 74.338 199 72.998 199 69.34C199 64.556 202.998 57.137 207.14 54.236L209.489 52.591L206.763 47.742C202.546 40.241 201.543 33.956 203.402 26.6971C205.942 16.7851 211.227 10.023 220 5.46205C229.455 0.546049 252.459 2.14905 265.685 8.64505C276.199 13.81 283.786 24.2941 282.809 32.3101C282.551 34.4241 281.421 35.2501 276.017 37.2751C267.657 40.4091 250 50.6151 250 52.3141C250 53.0331 250.237 53.6221 250.527 53.6221C250.817 53.6221 255.655 50.9481 261.277 47.6811C281.916 35.6851 293.345 34.029 307.43 40.99C321.004 47.699 330.229 59.313 331.674 71.516C332.796 80.988 328.54 94.8721 320.834 106.881C317.775 111.648 317.573 114.052 320.431 111.68C321.244 111.005 323.074 108.465 324.497 106.037C325.92 103.609 327.705 101.622 328.464 101.622C330.614 101.622 338.102 107.734 341.646 112.38C343.628 114.978 345.303 118.766 346.039 122.311C348.465 133.996 345.115 144.353 336.152 152.883C329.109 159.585 323.126 163.116 312.678 166.734C308.192 168.287 304.367 170.022 304.177 170.59C303.386 172.965 312.765 170.318 323.595 165.108C330.725 161.679 342.311 151.858 344.798 147.136C345.809 145.216 345.985 145.253 350.172 148.274C352.77 150.149 355.599 153.486 357.25 156.624C364.583 170.56 357.453 187.94 341.185 195.784C337.508 197.557 334.338 199.12 334.14 199.258C333.942 199.396 336.077 202.943 338.884 207.14C351.995 226.743 350.814 246.921 335.685 261.811C325.415 271.917 309.631 277.892 299.312 275.58C296.71 274.997 294.041 274.071 293.38 273.522C292.576 272.855 291.963 272.872 291.53 273.573C290.496 275.247 291.798 276.472 295.786 277.579C313.512 282.502 337.237 270.062 346.721 250.872C350.194 243.845 350.433 242.767 350.412 234.24C350.385 223.639 348.366 217.04 342.084 207.021L338.109 200.681L344.117 197.479C356.049 191.119 362.401 180.58 362.429 167.094C362.442 161.074 362.002 159.285 359.359 154.606C357.337 151.026 354.685 148.108 351.66 146.134C347.614 143.493 347.135 142.814 347.773 140.622C348.173 139.247 348.5 133.847 348.5 128.622C348.5 120.615 348.133 118.415 346.163 114.622C343.203 108.924 338.695 104.157 333.192 100.908C330.015 99.032 329.064 97.939 329.567 96.743C334.887 84.108 335.673 71.566 331.753 61.863C328.954 54.933 325.83 50.9491 318.409 44.8451C310.509 38.3461 302.896 35.243 293.75 34.792C286.534 34.437 286 34.2581 286 32.1981C286 30.9811 285.321 27.6971 284.49 24.9011C281.44 14.6311 270.407 5.96005 255.5 2.11905C246.972 -0.0779536 229.535 -0.73495 224.5 0.95205ZM226.471 53.884C225.469 56.427 230.521 66.1591 235.198 70.6981C242.111 77.4071 246.957 79.122 259 79.122C270.053 79.122 275 78.3081 275 76.4891C275 75.7291 273.549 75.659 270.25 76.258C261.639 77.824 250.952 77.242 245.851 74.93C239.466 72.037 233.315 65.58 229.969 58.259C227.83 53.578 227 52.54 226.471 53.884ZM253.692 91.05C244.247 93.589 238.865 102.565 240.45 113.134C241.541 120.415 243 119.432 243 111.415C243 106.191 243.532 103.099 244.855 100.631C247.224 96.2141 253.863 92.622 259.657 92.622C262.851 92.622 264 92.225 264 91.122C264 89.276 260.382 89.251 253.692 91.05ZM242 146.69C237.875 147.767 232.062 149.88 229.081 151.384C223.646 154.128 214 162.015 214 163.715C214 165.638 216.397 164.45 221.161 160.167C230.362 151.894 243.46 147.37 258.5 147.271C269.357 147.199 277.652 148.896 282.494 152.182C284.471 153.524 286.556 154.622 287.128 154.622C288.989 154.622 287.419 152.172 284.129 149.942C276.365 144.68 255.783 143.092 242 146.69ZM283.576 174.809C283.351 175.531 282.905 177.325 282.584 178.795C281.759 182.573 277.45 187.352 272.665 189.793C269.146 191.588 267.357 191.806 259.697 191.369C251.485 190.901 250.935 190.986 252.442 192.492C253.683 193.734 256.027 194.122 262.286 194.122C269.485 194.122 271.09 193.775 275.272 191.317C280.404 188.3 284.422 183.039 285.467 177.967C286.102 174.885 284.426 172.085 283.576 174.809ZM259.766 223.324C253.984 225.253 247.815 230.375 244.537 235.969C240.239 243.302 237.354 259.622 240.355 259.622C241.308 259.622 241.882 257.573 242.289 252.71C243.073 243.357 246.181 236.543 252.083 231.237C259.73 224.362 270.608 222.467 284.775 225.543C290.516 226.79 293.285 226.574 291.713 225.001C291.371 224.66 288.484 223.767 285.296 223.017C277.64 221.216 265.656 221.36 259.766 223.324Z" fill="url(#paint0_linear_141_19)"/>
<path d="M235.198 70.6981C230.521 66.1591 225.469 56.427 226.471 53.884C227 52.54 227.83 53.578 229.969 58.259C233.315 65.58 239.466 72.037 245.851 74.93C250.952 77.242 261.639 77.824 270.25 76.258C273.549 75.659 275 75.7291 275 76.4891C275 78.3081 270.053 79.122 259 79.122C246.957 79.122 242.111 77.4071 235.198 70.6981Z" fill="url(#paint1_linear_141_19)"/>
<path d="M240.45 113.134C238.865 102.565 244.247 93.589 253.692 91.05C260.382 89.251 264 89.276 264 91.122C264 92.225 262.851 92.622 259.657 92.622C253.863 92.622 247.224 96.2141 244.855 100.631C243.532 103.099 243 106.191 243 111.415C243 119.432 241.541 120.415 240.45 113.134Z" fill="url(#paint2_linear_141_19)"/>
<path d="M229.081 151.384C232.062 149.88 237.875 147.767 242 146.69C255.783 143.092 276.365 144.68 284.129 149.942C287.419 152.172 288.989 154.622 287.128 154.622C286.556 154.622 284.471 153.524 282.494 152.182C277.652 148.896 269.357 147.199 258.5 147.271C243.46 147.37 230.362 151.894 221.161 160.167C216.397 164.45 214 165.638 214 163.715C214 162.015 223.646 154.128 229.081 151.384Z" fill="url(#paint3_linear_141_19)"/>
<path d="M282.584 178.795C282.905 177.325 283.351 175.531 283.576 174.809C284.426 172.085 286.102 174.885 285.467 177.967C284.422 183.039 280.404 188.3 275.272 191.317C271.09 193.775 269.485 194.122 262.286 194.122C256.027 194.122 253.683 193.734 252.442 192.492C250.935 190.986 251.485 190.901 259.697 191.369C267.357 191.806 269.146 191.588 272.665 189.793C277.45 187.352 281.759 182.573 282.584 178.795Z" fill="url(#paint4_linear_141_19)"/>
<path d="M244.537 235.969C247.815 230.375 253.984 225.253 259.766 223.324C265.656 221.36 277.64 221.216 285.296 223.017C288.484 223.767 291.371 224.66 291.713 225.001C293.285 226.574 290.516 226.79 284.775 225.543C270.608 222.467 259.73 224.362 252.083 231.237C246.181 236.543 243.073 243.357 242.289 252.71C241.882 257.573 241.308 259.622 240.355 259.622C237.354 259.622 240.239 243.302 244.537 235.969Z" fill="url(#paint5_linear_141_19)"/>
<path d="M235.198 70.6981C230.521 66.1591 225.469 56.427 226.471 53.884C227 52.54 227.83 53.578 229.969 58.259C233.315 65.58 239.466 72.037 245.851 74.93C250.952 77.242 261.639 77.824 270.25 76.258C273.549 75.659 275 75.7291 275 76.4891C275 78.3081 270.053 79.122 259 79.122C246.957 79.122 242.111 77.4071 235.198 70.6981Z" fill="url(#paint6_linear_141_19)"/>
<path d="M240.45 113.134C238.865 102.565 244.247 93.589 253.692 91.05C260.382 89.251 264 89.276 264 91.122C264 92.225 262.851 92.622 259.657 92.622C253.863 92.622 247.224 96.2141 244.855 100.631C243.532 103.099 243 106.191 243 111.415C243 119.432 241.541 120.415 240.45 113.134Z" fill="url(#paint7_linear_141_19)"/>
<path d="M229.081 151.384C232.062 149.88 237.875 147.767 242 146.69C255.783 143.092 276.365 144.68 284.129 149.942C287.419 152.172 288.989 154.622 287.128 154.622C286.556 154.622 284.471 153.524 282.494 152.182C277.652 148.896 269.357 147.199 258.5 147.271C243.46 147.37 230.362 151.894 221.161 160.167C216.397 164.45 214 165.638 214 163.715C214 162.015 223.646 154.128 229.081 151.384Z" fill="url(#paint8_linear_141_19)"/>
<path d="M282.584 178.795C282.905 177.325 283.351 175.531 283.576 174.809C284.426 172.085 286.102 174.885 285.467 177.967C284.422 183.039 280.404 188.3 275.272 191.317C271.09 193.775 269.485 194.122 262.286 194.122C256.027 194.122 253.683 193.734 252.442 192.492C250.935 190.986 251.485 190.901 259.697 191.369C267.357 191.806 269.146 191.588 272.665 189.793C277.45 187.352 281.759 182.573 282.584 178.795Z" fill="url(#paint9_linear_141_19)"/>
<path d="M244.537 235.969C247.815 230.375 253.984 225.253 259.766 223.324C265.656 221.36 277.64 221.216 285.296 223.017C288.484 223.767 291.371 224.66 291.713 225.001C293.285 226.574 290.516 226.79 284.775 225.543C270.608 222.467 259.73 224.362 252.083 231.237C246.181 236.543 243.073 243.357 242.289 252.71C241.882 257.573 241.308 259.622 240.355 259.622C237.354 259.622 240.239 243.302 244.537 235.969Z" fill="url(#paint10_linear_141_19)"/>
<path d="M113 44.8801C113 44.4721 122.784 34.3471 134.741 22.3801C146.699 10.4131 156.945 0.62207 157.509 0.62207C158.074 0.62207 163.149 5.25107 168.786 10.9081L179.037 21.1931L178.769 45.0581L178.5 68.9231L149.119 90.3411C128.336 105.491 119.426 111.448 118.672 110.694C117.919 109.941 118.177 109.202 119.554 108.17C120.624 107.367 133.747 97.8031 148.716 86.9161L175.933 67.1221L175.966 45.1021L176 23.0821L166.495 13.6171L156.989 4.15107L136.236 24.8861C117.764 43.3421 113 47.4421 113 44.8801Z" fill="#00FF0A"/>
<path d="M59.923 57.2211L76.7 40.4211L93.478 23.6221H107.739C119.749 23.6221 122 23.8591 122 25.1221C122 26.3831 119.804 26.6221 108.238 26.6221H94.477L78.769 42.3721L63.062 58.1221L62.781 67.6221C62.411 80.1331 60.589 79.6401 60.211 66.9261L59.923 57.2211Z" fill="#00FF0A"/>
<path d="M47 79.7061L54.75 79.4141C68.496 78.8961 94.471 79.7231 95.474 80.7111C96.1 81.3281 87.823 90.2941 72.247 105.869C56.066 122.05 47.715 129.737 47.044 129.066C46.374 128.396 53.325 120.786 68.021 106.101C80.109 94.0221 90 83.7981 90 83.3811C90 82.9631 81.012 82.6221 70.027 82.6221H50.053L49.777 97.2901C49.576 107.932 49.157 112.072 48.25 112.373C47.284 112.694 47 109.035 47 96.2471V79.7061Z" fill="#00FF0A"/>
<path d="M137.197 107.623C137.364 107.174 146.05 100.473 156.5 92.7311C166.95 84.9891 176.175 78.7661 177 78.9021C178.311 79.1181 178.5 85.7581 178.5 131.636V184.122L162.538 184.398L146.576 184.675L131.038 169.17L115.5 153.664L99 153.393C76.848 153.029 77.384 151.212 99.748 150.853L116.5 150.584L131.988 166.103L147.476 181.622H161.738H176V132.063C176 92.6731 175.744 82.6621 174.75 83.2721C174.063 83.6941 165.721 89.8121 156.214 96.8681C141.279 107.951 135.959 110.96 137.197 107.623Z" fill="#00FF0A"/>
<path d="M14 128.151L26.235 115.886C32.964 109.141 38.814 103.622 39.235 103.622C41.649 103.622 38.754 107.397 28.5 117.622L17 129.089V147.589V166.089L27.733 176.856L38.466 187.622H54.816C67.452 187.622 71.072 187.906 70.75 188.872C70.442 189.794 66.001 190.173 53.835 190.317L37.337 190.512L25.669 178.887L14 167.261V147.706V128.151Z" fill="#00FF0A"/>
<path d="M176 219.16V204.891C176 192.874 176.237 190.622 177.5 190.622C178.766 190.622 179 192.93 179 205.39V220.158L168.516 230.606C161.524 237.575 157.699 240.721 157.032 240.054C156.364 239.386 159.356 235.741 166.016 229.106L176 219.16Z" fill="#00FF0A"/>
<path d="M38 216.148V204.302C38 195.271 38.297 192.554 39.25 192.868C40.109 193.152 40.656 196.774 41 204.443L41.5 215.604L55.25 229.376C62.813 236.951 69 243.48 69 243.885C69 246.317 64.954 243.054 52.263 230.385L38 216.148Z" fill="#00FF0A"/>
<path d="M75.321 281.763C74.805 279.709 79.433 274.698 111.109 243.013C131.118 222.998 147.83 206.622 148.245 206.622C150.951 206.622 145.152 212.961 113.258 244.864L77.517 280.615L93.497 296.619L109.477 312.622H130.474H151.471L163.736 300.387L176 288.152V261.304C176 240.27 176.271 234.545 177.25 234.872C178.201 235.188 178.564 241.847 178.766 262.674L179.033 290.061L166.281 302.842L153.529 315.622H130.585H107.641L91.778 299.872C83.053 291.209 75.648 283.06 75.321 281.763Z" fill="#00FF0A"/>
<path d="M68.453 273.622L96.397 245.872C118.073 224.346 124.437 218.546 124.771 220.014C125.091 221.422 118.197 228.92 97.851 249.29L70.5 276.672L61.5 276.397L52.5 276.122L52.23 255.372C51.983 236.462 52.553 231.41 54.393 236.204C54.727 237.074 55 245.849 55 255.704V273.622H61.727H68.453Z" fill="#00FF0A"/>
<path d="M194.421 359.577C193.449 357.251 193 352.212 193 343.643V331.111H195.5H198V344.034C198 356.478 198.096 357.072 200.589 360.034C202.77 362.626 203.883 363.111 207.655 363.111C216.999 363.111 219 359.502 219 342.643C219 331.778 219.116 331.111 221 331.111C222.904 331.111 223 331.778 223 345.034C223 358.532 222.921 359.051 220.427 362.015C214.119 369.511 197.938 367.994 194.421 359.577Z" fill="url(#paint11_linear_141_19)"/>
<path d="M245.149 340.067C241.767 335.651 239 331.829 239 331.574C239 331.32 240.238 331.114 241.75 331.118C243.716 331.123 245.145 332.05 246.761 334.368C248.005 336.152 250.29 339.13 251.838 340.987L254.655 344.364L259.52 337.737C263.598 332.184 264.86 331.111 267.315 331.111C269.511 331.111 270.001 331.424 269.273 332.361C259.875 344.449 258 347.062 258 348.077C258 348.737 260.7 352.766 264 357.032C267.3 361.298 270 365.086 270 365.449C270 365.813 268.868 366.111 267.484 366.111C265.523 366.111 263.844 364.569 259.862 359.111C257.053 355.261 254.425 352.111 254.022 352.111C253.619 352.111 251.448 354.736 249.198 357.945C244.191 365.082 242.718 366.357 239.968 365.938C238.043 365.644 238.51 364.721 244.561 356.853L251.297 348.095L245.149 340.067Z" fill="url(#paint12_linear_141_19)"/>
<path d="M302.948 364.545C298.153 361.754 297.079 357.908 297.012 343.291C296.957 331.259 297.006 330.979 299.094 331.291C301.126 331.595 301.226 332.109 301.091 341.611C300.851 358.586 303.07 363.111 311.633 363.111C320.953 363.111 322.956 359.491 322.956 342.643C322.956 331.778 323.072 331.111 324.956 331.111C326.852 331.111 326.956 331.777 326.954 343.861C326.953 358.3 325.653 362.541 320.456 365.067C315.965 367.249 307.142 366.986 302.948 364.545Z" fill="url(#paint13_linear_141_19)"/>
<path d="M345.871 348.861C345.889 339.648 345.915 331.886 345.93 331.611C345.944 331.336 346.856 331.111 347.956 331.111C349.88 331.111 349.956 331.778 349.956 348.681C349.956 365.855 349.91 366.243 347.897 365.931C345.911 365.622 345.839 365.013 345.871 348.861Z" fill="url(#paint14_linear_141_19)"/>
<path d="M289.443 327.424C289.963 326.085 291.469 325.421 292.808 325.941V325.941C293.014 326.02 293.116 326.252 293.036 326.458L276.034 370.275C275.515 371.614 274.009 372.278 272.67 371.759V371.759C272.464 371.679 272.362 371.447 272.442 371.241L289.443 327.424Z" fill="url(#paint15_linear_141_19)"/>
<path d="M4.49219 331.99H30.0049V336.995H9.49707V347.005H27.002V352.01H9.49707V367H4.49219V331.99ZM64.6729 344.49C64.6729 349.373 62.5895 352.156 58.4229 352.84L65.0146 367H59.4727L52.9785 353.011H42.0166V367H37.0117V331.99H56.1768C61.8408 331.99 64.6729 334.83 64.6729 340.511V344.49ZM42.0166 348.006H55.9082C57.2428 348.006 58.2031 347.713 58.7891 347.127C59.375 346.541 59.668 345.581 59.668 344.246V340.755C59.668 339.42 59.375 338.46 58.7891 337.874C58.2031 337.288 57.2428 336.995 55.9082 336.995H42.0166V348.006ZM103.052 361.995C103.052 362.679 102.922 363.33 102.661 363.948C102.401 364.55 102.043 365.079 101.587 365.535C101.131 365.991 100.594 366.349 99.9756 366.609C99.3734 366.87 98.7305 367 98.0469 367H78.0518C77.3682 367 76.7171 366.87 76.0986 366.609C75.4964 366.349 74.9674 365.991 74.5117 365.535C74.056 365.079 73.6979 364.55 73.4375 363.948C73.1771 363.33 73.0469 362.679 73.0469 361.995V336.995C73.0469 336.312 73.1771 335.669 73.4375 335.066C73.6979 334.448 74.056 333.919 74.5117 333.479C74.9674 333.024 75.4964 332.666 76.0986 332.405C76.7171 332.129 77.3682 331.99 78.0518 331.99H98.0469C98.7305 331.99 99.3734 332.129 99.9756 332.405C100.594 332.666 101.131 333.024 101.587 333.479C102.043 333.919 102.401 334.448 102.661 335.066C102.922 335.669 103.052 336.312 103.052 336.995V361.995ZM78.0518 336.995V361.995H98.0469V336.995H78.0518ZM117.065 367H112.061V331.99H117.065L138.11 359.139V331.99H143.115V367H138.11L117.065 339.852V367ZM149.097 331.99H177.1V336.995H165.601V367H160.596V336.995H149.097V331.99Z" fill="#00FF0A"/>
<defs>
<linearGradient id="paint0_linear_141_19" x1="362" y1="158" x2="193" y2="158" gradientUnits="userSpaceOnUse">
<stop stop-color="#2400FF"/>
<stop offset="1" stop-color="#FF008A"/>
</linearGradient>
<linearGradient id="paint1_linear_141_19" x1="362" y1="158" x2="193" y2="158" gradientUnits="userSpaceOnUse">
<stop stop-color="#2400FF"/>
<stop offset="1" stop-color="#FF008A"/>
</linearGradient>
<linearGradient id="paint2_linear_141_19" x1="362" y1="158" x2="193" y2="158" gradientUnits="userSpaceOnUse">
<stop stop-color="#2400FF"/>
<stop offset="1" stop-color="#FF008A"/>
</linearGradient>
<linearGradient id="paint3_linear_141_19" x1="362" y1="158" x2="193" y2="158" gradientUnits="userSpaceOnUse">
<stop stop-color="#2400FF"/>
<stop offset="1" stop-color="#FF008A"/>
</linearGradient>
<linearGradient id="paint4_linear_141_19" x1="362" y1="158" x2="193" y2="158" gradientUnits="userSpaceOnUse">
<stop stop-color="#2400FF"/>
<stop offset="1" stop-color="#FF008A"/>
</linearGradient>
<linearGradient id="paint5_linear_141_19" x1="362" y1="158" x2="193" y2="158" gradientUnits="userSpaceOnUse">
<stop stop-color="#2400FF"/>
<stop offset="1" stop-color="#FF008A"/>
</linearGradient>
<linearGradient id="paint6_linear_141_19" x1="362" y1="158" x2="193" y2="158" gradientUnits="userSpaceOnUse">
<stop stop-color="#2400FF"/>
<stop offset="1" stop-color="#FF008A"/>
</linearGradient>
<linearGradient id="paint7_linear_141_19" x1="362" y1="158" x2="193" y2="158" gradientUnits="userSpaceOnUse">
<stop stop-color="#2400FF"/>
<stop offset="1" stop-color="#FF008A"/>
</linearGradient>
<linearGradient id="paint8_linear_141_19" x1="362" y1="158" x2="193" y2="158" gradientUnits="userSpaceOnUse">
<stop stop-color="#2400FF"/>
<stop offset="1" stop-color="#FF008A"/>
</linearGradient>
<linearGradient id="paint9_linear_141_19" x1="362" y1="158" x2="193" y2="158" gradientUnits="userSpaceOnUse">
<stop stop-color="#2400FF"/>
<stop offset="1" stop-color="#FF008A"/>
</linearGradient>
<linearGradient id="paint10_linear_141_19" x1="362" y1="158" x2="193" y2="158" gradientUnits="userSpaceOnUse">
<stop stop-color="#2400FF"/>
<stop offset="1" stop-color="#FF008A"/>
</linearGradient>
<linearGradient id="paint11_linear_141_19" x1="231.5" y1="331.111" x2="231.5" y2="366.855" gradientUnits="userSpaceOnUse">
<stop stop-color="#2400FF"/>
<stop offset="1" stop-color="#FF008A"/>
</linearGradient>
<linearGradient id="paint12_linear_141_19" x1="231.5" y1="331.111" x2="231.5" y2="366.855" gradientUnits="userSpaceOnUse">
<stop stop-color="#2400FF"/>
<stop offset="1" stop-color="#FF008A"/>
</linearGradient>
<linearGradient id="paint13_linear_141_19" x1="323.478" y1="331.111" x2="323.478" y2="366.552" gradientUnits="userSpaceOnUse">
<stop stop-color="#2400FF"/>
<stop offset="1" stop-color="#FF008A"/>
</linearGradient>
<linearGradient id="paint14_linear_141_19" x1="323.478" y1="331.111" x2="323.478" y2="366.552" gradientUnits="userSpaceOnUse">
<stop stop-color="#2400FF"/>
<stop offset="1" stop-color="#FF008A"/>
</linearGradient>
<linearGradient id="paint15_linear_141_19" x1="291.782" y1="325.543" x2="273.695" y2="372.157" gradientUnits="userSpaceOnUse">
<stop stop-color="#2400FF"/>
<stop offset="1" stop-color="#FF008A"/>
</linearGradient>
</defs>
</svg>
