<svg width="670" height="663" viewBox="0 0 670 663" fill="none" xmlns="http://www.w3.org/2000/svg">
<path fill-rule="evenodd" clip-rule="evenodd" d="M447.5 280.591C435.333 281.323 421.648 282.941 415 284.433C412.8 284.927 409.425 285.645 407.5 286.03C399.34 287.662 381.055 293.541 369 298.409C362.41 301.071 342.392 311.51 336.5 315.359C319.059 326.75 296.888 346.655 287.294 359.536C273.562 377.974 260.943 403.766 258.918 417.536C258.635 419.461 258.186 421.672 257.92 422.45C257.654 423.227 257.192 425.477 256.892 427.45C256.592 429.422 255.942 432.836 255.448 435.036C254.235 440.432 254.259 467.259 255.482 473.237C256.744 479.407 257.447 483.183 258.142 487.536C258.449 489.461 259.598 493.511 260.694 496.536C261.79 499.561 262.836 502.785 263.019 503.7C263.977 508.49 274.826 530.528 279.861 537.91C290.315 553.24 304.058 568.703 314.982 577.424C335.642 593.92 343.316 598.519 372 611.6C380.342 615.405 403.501 621.538 420.5 624.445C440.894 627.934 480.834 628.048 501 624.674C515.61 622.229 526.115 620.243 527.864 619.596C529.228 619.091 531.883 619.997 536.539 622.557C548.673 629.226 572.68 638.278 600 646.482C606.764 648.513 629.169 654.651 630.882 654.942C633.267 655.346 648.199 658.718 651.911 659.689C657.049 661.034 659.127 661.455 664.342 662.207L668.684 662.833L666.217 657.935C664.86 655.24 662.768 650.786 661.568 648.036C660.368 645.286 658.568 641.236 657.569 639.036C651.573 625.831 644.823 608.215 641.86 598.036C638.968 588.1 637.403 582.041 637.088 579.562C636.912 578.173 636.248 575.152 635.613 572.85C634.977 570.548 634.55 568.298 634.664 567.85C634.778 567.402 634.521 563.814 634.093 559.876L633.315 552.717L638.339 546.242C642.782 540.517 655.5 519.667 655.5 518.107C655.5 517.781 656.346 515.607 657.38 513.275C664.743 496.669 669.513 473.287 669.483 453.954C669.467 444.126 668.854 438.852 665.6 420.536C664.714 415.55 660.793 403.064 658.534 398.036C655.279 390.791 649.196 378.482 647.414 375.536C634.472 354.137 613.259 332.668 589.851 317.277C581.7 311.917 562.786 301.409 560.5 300.969C560.225 300.916 557.75 299.857 555 298.616C543.056 293.225 522.911 287.298 504 283.612C489.771 280.838 465.212 279.525 447.5 280.591ZM447.187 472.836C449.757 465.215 449.831 464.273 450.409 431.785L451 398.534L413.25 398.535L375.5 398.536V434.536V470.536H391.094H406.689L406.202 476.008C405.115 488.227 394.642 502.892 382.414 509.32L376.827 512.257L378.451 516.147C379.345 518.286 380.935 521.909 381.986 524.199L383.896 528.361L387.448 527.034C389.402 526.304 392.334 525.41 393.965 525.048C396.917 524.393 404.349 521.389 407.823 519.447C408.826 518.886 411.301 517.538 413.323 516.451C428.324 508.389 440.476 492.738 447.187 472.836ZM552.213 478.536C557.295 465.185 558.5 454.748 558.5 424.094V398.536H520.75H483V434.536V470.536H498.37H513.74L513.322 476.325C512.461 488.218 501.883 502.822 489.406 509.342L483.812 512.265L487.406 519.955C490.391 526.342 491.339 527.568 493 527.19C522.234 520.545 542.59 503.819 552.213 478.536Z" fill="#EF0000"/>
<path fill-rule="evenodd" clip-rule="evenodd" d="M256 1.83852C257.1 1.50652 261.6 0.895521 266 0.480521C270.4 0.066521 287.725 -0.115478 304.5 0.0765216C306.352 0.097729 308.095 0.117498 309.737 0.136121C331.504 0.382994 335.517 0.42851 339.466 0.954259C340.359 1.07311 341.249 1.2165 342.339 1.3923C342.701 1.4507 343.086 1.51268 343.5 1.57852C346.525 2.05952 352.825 2.96052 357.5 3.58052C362.175 4.20052 367.397 5.13252 369.104 5.65052C372.291 6.61952 373.248 6.82652 382.254 8.49552C385.143 9.03052 388.405 9.94952 389.504 10.5375C390.602 11.1255 391.5 11.3875 391.5 11.1215C391.5 10.8555 393.018 11.2715 394.873 12.0465C396.728 12.8225 398.445 13.2575 398.688 13.0145C398.931 12.7715 401.575 13.5015 404.565 14.6375C407.554 15.7725 412.025 17.3095 414.5 18.0535C420.902 19.9775 427.513 22.3695 431 24.0255C432.65 24.8095 437.6 27.0245 442 28.9485C464.478 38.7765 484.923 50.9375 507.234 67.7505C518.948 76.5785 542.573 99.8865 551.615 111.536C560.541 123.036 570.5 137.644 570.5 139.236C570.5 139.951 570.859 140.536 571.297 140.536C572.666 140.536 583.119 162.163 587.938 174.968C591.474 184.363 596.699 202.306 597.045 206.241C597.2 208.004 597.564 209.83 597.853 210.299C598.143 210.767 598.637 213.297 598.952 215.922C599.267 218.546 599.88 222.345 600.313 224.364C601.194 228.473 601.961 258.536 601.185 258.536C600.911 258.536 595.133 255.905 588.344 252.69C581.555 249.475 573.525 245.909 570.5 244.766C559.152 240.479 552.927 238.33 550.595 237.892C549.273 237.644 547.248 236.936 546.095 236.319C544.943 235.703 543.888 235.274 543.75 235.367C542.113 236.473 539.496 230.187 540.336 227.169C540.469 226.692 540.097 224.846 539.51 223.066C538.922 221.285 538.277 218.974 538.076 217.929C535.266 203.339 527.11 183.217 517.67 167.584C505.651 147.681 484.418 124.685 465.457 111.036C449.672 99.6725 439.269 93.3185 426.5 87.2415C410.642 79.6935 405.69 77.5355 404.23 77.5355C403.462 77.5355 402.52 77.2225 402.138 76.8395C401.755 76.4575 400.893 76.0295 400.221 75.8895C399.549 75.7495 395.175 74.2985 390.5 72.6645C381.012 69.3485 359.946 64.2715 348.5 62.5415C344.375 61.9185 338.3 60.9295 335 60.3435C325.159 58.5975 273.874 59.0585 262 61.0005C256.5 61.8995 249.493 63.0175 246.43 63.4835C235.357 65.1715 204.754 73.7365 199.185 76.7075C198.187 77.2395 196.567 77.8305 195.585 78.0195C193.213 78.4755 174.669 86.9795 166.5 91.3565C159.775 94.9595 142.381 105.509 141.5 106.519C141.225 106.834 137.4 109.762 133 113.026C123.437 120.12 101.595 141.636 95.43 150.036C84.586 164.811 78.984 174.38 71.644 190.671C68.986 196.569 64.47 210.189 63.971 213.809C63.761 215.335 63.35 216.97 63.058 217.443C62.765 217.916 62.267 220.043 61.95 222.169C61.634 224.296 60.983 227.521 60.504 229.336C59.36 233.673 59.343 272.032 60.482 276.536C60.97 278.461 61.611 281.662 61.907 283.65C62.203 285.637 62.921 288.512 63.501 290.038C64.081 291.565 64.357 293.013 64.113 293.256C63.87 293.5 64.312 295.235 65.097 297.113C65.881 298.99 66.572 300.866 66.631 301.281C66.766 302.222 67.938 305.457 70.709 312.536C77.527 329.957 92.289 351.538 110.382 370.536L117.524 378.036L116.958 384.469C116.646 388.007 116.143 391.304 115.839 391.796C115.536 392.287 114.894 395.468 114.414 398.863C113.934 402.258 113.127 406.836 112.621 409.036C112.115 411.236 110.786 417.236 109.668 422.369C108.549 427.502 106.899 434.252 106.001 437.369C102.472 449.615 100.12 457.39 97.478 465.536C95.962 470.211 95.096 474.178 95.554 474.35C96.36 474.655 112.946 469.368 117 467.514C118.1 467.011 123.796 464.803 129.657 462.607C148.341 455.606 177.798 441.801 191.11 433.806C195.021 431.458 198.66 429.536 199.196 429.536C199.767 429.536 199.957 431.51 199.654 434.286C198.276 446.919 199.389 480.177 201.428 487.286C202.538 491.154 202.067 491.529 186.5 499.18C172.794 505.916 170.343 507.007 160 510.984C156.15 512.465 151.65 514.269 150 514.994C139.027 519.814 98.512 532.357 70.721 539.539C64.517 541.142 59.053 542.694 58.579 542.987C58.104 543.281 56.205 543.729 54.358 543.983C52.511 544.238 48.3 545.182 45 546.081C41.7 546.981 37.65 547.927 36 548.185C34.35 548.442 30.3 549.308 27 550.109C23.7 550.91 19.875 551.777 18.5 552.034C17.125 552.292 14.875 552.727 13.5 553.002C12.125 553.277 9.425 553.75 7.5 554.055C5.575 554.359 3.213 554.847 2.25 555.139C1.287 555.432 0.5 555.483 0.5 555.254C0.5 555.025 3.239 549.032 6.587 541.937C9.935 534.841 13.736 526.786 15.034 524.036C16.332 521.286 19.038 514.986 21.047 510.036C23.056 505.086 25.279 499.686 25.986 498.036C27.85 493.688 31.742 483.023 36.935 468.036C40.446 457.9 46.741 432.992 48.018 424.182C48.245 422.612 48.652 420.587 48.922 419.682C49.192 418.777 49.685 412.636 50.019 406.036C50.559 395.335 50.428 393.819 48.812 392.032C43.505 386.164 34.99 373.642 27.734 361.036C24.056 354.645 17.5 341.17 17.5 340C17.5 339.733 16.617 337.607 15.537 335.275C13.603 331.098 7.625 313.78 7.004 310.559C6.829 309.649 6.005 306.01 5.173 302.471C0.730997 283.573 0 276.445 0 252.036C0 231.203 0.474004 224.129 2.577 213.536C5.358 199.538 11.072 178.877 12.658 177.086C13.121 176.564 13.5 175.468 13.5 174.652C13.5 168.539 39.197 122.846 48.161 113.02C49.172 111.911 52.237 108.311 54.972 105.02C61.218 97.5015 77.444 81.3125 84.018 76.0395C86.758 73.8415 89.675 71.3615 90.5 70.5275C91.325 69.6945 94.025 67.5405 96.5 65.7415C98.975 63.9425 103.135 60.8915 105.745 58.9615C116.061 51.3305 134.194 40.7265 150 33.0825C161.784 27.3825 185.145 17.8205 188.989 17.1235C190.274 16.8905 192.264 16.1965 193.412 15.5825C194.561 14.9675 195.5 14.7175 195.5 15.0255C195.5 15.3345 196.892 14.8675 198.593 13.9875C200.294 13.1075 201.906 12.6075 202.174 12.8765C202.443 13.1455 204.201 12.7225 206.082 11.9365C207.962 11.1515 209.5 10.7555 209.5 11.0575C209.5 11.3585 210.398 11.1255 211.496 10.5375C212.595 9.94952 215.857 9.03052 218.746 8.49552C221.636 7.95952 224.9 7.32352 226 7.08052C236.284 4.81252 242.936 3.60052 248 3.07052C251.3 2.72552 254.9 2.17052 256 1.83852Z" fill="#EF0000"/>
<path d="M247 128.007C246.45 128.179 243.3 129.086 240 130.024C230.144 132.824 215.882 140.512 207.966 147.291C199.385 154.64 193.174 162.57 188.507 172.137C180.311 188.937 179.5 194.407 179.5 232.846V263.536H219.5H259.5V225.036V186.536H243.406H227.312L228.023 181.286C229.172 172.795 233.539 164.47 240.369 157.744C246.579 151.63 254.105 146.536 256.928 146.536C259.277 146.536 258.894 144.839 254.5 135.782C250.813 128.18 249.801 127.131 247 128.007Z" fill="#EF0000"/>
<path d="M351.143 130.013C334.168 135.071 318.84 145.053 308.567 157.74C302.685 165.004 296.078 177.165 294.519 183.598C293.928 186.039 293.269 188.711 293.055 189.536C290.883 197.929 290.546 203.55 290.524 231.786L290.5 263.536H330.5H370.5V225.036V186.536H354.124H337.748L339.182 180.286C339.97 176.849 340.849 173.136 341.133 172.036C342.996 164.844 359.801 148.332 366.75 146.866C370.144 146.15 370.15 145.422 366.822 138.536C364.614 133.969 364.06 132.853 363.634 131.691C363.443 131.17 363.277 130.64 362.999 129.786C362.103 127.034 361.074 127.054 351.143 130.013Z" fill="#EF0000"/>
<path fill-rule="evenodd" clip-rule="evenodd" d="M256 1.83852C257.1 1.50652 261.6 0.895521 266 0.480521C270.4 0.066521 287.725 -0.115478 304.5 0.0765216C306.352 0.097729 308.095 0.117498 309.737 0.136121C331.504 0.382994 335.517 0.42851 339.466 0.954259C340.359 1.07311 341.249 1.2165 342.339 1.3923C342.701 1.4507 343.086 1.51268 343.5 1.57852C346.525 2.05952 352.825 2.96052 357.5 3.58052C362.175 4.20052 367.397 5.13252 369.104 5.65052C372.291 6.61952 373.248 6.82652 382.254 8.49552C385.143 9.03052 388.405 9.94952 389.504 10.5375C390.602 11.1255 391.5 11.3875 391.5 11.1215C391.5 10.8555 393.018 11.2715 394.873 12.0465C396.728 12.8225 398.445 13.2575 398.688 13.0145C398.931 12.7715 401.575 13.5015 404.565 14.6375C407.554 15.7725 412.025 17.3095 414.5 18.0535C420.902 19.9775 427.513 22.3695 431 24.0255C432.65 24.8095 437.6 27.0245 442 28.9485C464.478 38.7765 484.923 50.9375 507.234 67.7505C518.948 76.5785 542.573 99.8865 551.615 111.536C560.541 123.036 570.5 137.644 570.5 139.236C570.5 139.951 570.859 140.536 571.297 140.536C572.666 140.536 583.119 162.163 587.938 174.968C591.474 184.363 596.699 202.306 597.045 206.241C597.2 208.004 597.564 209.83 597.853 210.299C598.143 210.767 598.637 213.297 598.952 215.922C599.267 218.546 599.88 222.345 600.313 224.364C601.194 228.473 601.961 258.536 601.185 258.536C600.911 258.536 595.133 255.905 588.344 252.69C581.555 249.475 573.525 245.909 570.5 244.766C559.152 240.479 552.927 238.33 550.595 237.892C549.273 237.644 547.248 236.936 546.095 236.319C544.943 235.703 543.888 235.274 543.75 235.367C542.113 236.473 539.496 230.187 540.336 227.169C540.469 226.692 540.097 224.846 539.51 223.066C538.922 221.285 538.277 218.974 538.076 217.929C535.266 203.339 527.11 183.217 517.67 167.584C505.651 147.681 484.418 124.685 465.457 111.036C449.672 99.6725 439.269 93.3185 426.5 87.2415C410.642 79.6935 405.69 77.5355 404.23 77.5355C403.462 77.5355 402.52 77.2225 402.138 76.8395C401.755 76.4575 400.893 76.0295 400.221 75.8895C399.549 75.7495 395.175 74.2985 390.5 72.6645C381.012 69.3485 359.946 64.2715 348.5 62.5415C344.375 61.9185 338.3 60.9295 335 60.3435C325.159 58.5975 273.874 59.0585 262 61.0005C256.5 61.8995 249.493 63.0175 246.43 63.4835C235.357 65.1715 204.754 73.7365 199.185 76.7075C198.187 77.2395 196.567 77.8305 195.585 78.0195C193.213 78.4755 174.669 86.9795 166.5 91.3565C159.775 94.9595 142.381 105.509 141.5 106.519C141.225 106.834 137.4 109.762 133 113.026C123.437 120.12 101.595 141.636 95.43 150.036C84.586 164.811 78.984 174.38 71.644 190.671C68.986 196.569 64.47 210.189 63.971 213.809C63.761 215.335 63.35 216.97 63.058 217.443C62.765 217.916 62.267 220.043 61.95 222.169C61.634 224.296 60.983 227.521 60.504 229.336C59.36 233.673 59.343 272.032 60.482 276.536C60.97 278.461 61.611 281.662 61.907 283.65C62.203 285.637 62.921 288.512 63.501 290.038C64.081 291.565 64.357 293.013 64.113 293.256C63.87 293.5 64.312 295.235 65.097 297.113C65.881 298.99 66.572 300.866 66.631 301.281C66.766 302.222 67.938 305.457 70.709 312.536C77.527 329.957 92.289 351.538 110.382 370.536L117.524 378.036L116.958 384.469C116.646 388.007 116.143 391.304 115.839 391.796C115.536 392.287 114.894 395.468 114.414 398.863C113.934 402.258 113.127 406.836 112.621 409.036C112.115 411.236 110.786 417.236 109.668 422.369C108.549 427.502 106.899 434.252 106.001 437.369C102.472 449.615 100.12 457.39 97.478 465.536C95.962 470.211 95.096 474.178 95.554 474.35C96.36 474.655 112.946 469.368 117 467.514C118.1 467.011 123.796 464.803 129.657 462.607C148.341 455.606 177.798 441.801 191.11 433.806C195.021 431.458 198.66 429.536 199.196 429.536C199.767 429.536 199.957 431.51 199.654 434.286C198.276 446.919 199.389 480.177 201.428 487.286C202.538 491.154 202.067 491.529 186.5 499.18C172.794 505.916 170.343 507.007 160 510.984C156.15 512.465 151.65 514.269 150 514.994C139.027 519.814 98.512 532.357 70.721 539.539C64.517 541.142 59.053 542.694 58.579 542.987C58.104 543.281 56.205 543.729 54.358 543.983C52.511 544.238 48.3 545.182 45 546.081C41.7 546.981 37.65 547.927 36 548.185C34.35 548.442 30.3 549.308 27 550.109C23.7 550.91 19.875 551.777 18.5 552.034C17.125 552.292 14.875 552.727 13.5 553.002C12.125 553.277 9.425 553.75 7.5 554.055C5.575 554.359 3.213 554.847 2.25 555.139C1.287 555.432 0.5 555.483 0.5 555.254C0.5 555.025 3.239 549.032 6.587 541.937C9.935 534.841 13.736 526.786 15.034 524.036C16.332 521.286 19.038 514.986 21.047 510.036C23.056 505.086 25.279 499.686 25.986 498.036C27.85 493.688 31.742 483.023 36.935 468.036C40.446 457.9 46.741 432.992 48.018 424.182C48.245 422.612 48.652 420.587 48.922 419.682C49.192 418.777 49.685 412.636 50.019 406.036C50.559 395.335 50.428 393.819 48.812 392.032C43.505 386.164 34.99 373.642 27.734 361.036C24.056 354.645 17.5 341.17 17.5 340C17.5 339.733 16.617 337.607 15.537 335.275C13.603 331.098 7.625 313.78 7.004 310.559C6.829 309.649 6.005 306.01 5.173 302.471C0.730997 283.573 0 276.445 0 252.036C0 231.203 0.474004 224.129 2.577 213.536C5.358 199.538 11.072 178.877 12.658 177.086C13.121 176.564 13.5 175.468 13.5 174.652C13.5 168.539 39.197 122.846 48.161 113.02C49.172 111.911 52.237 108.311 54.972 105.02C61.218 97.5015 77.444 81.3125 84.018 76.0395C86.758 73.8415 89.675 71.3615 90.5 70.5275C91.325 69.6945 94.025 67.5405 96.5 65.7415C98.975 63.9425 103.135 60.8915 105.745 58.9615C116.061 51.3305 134.194 40.7265 150 33.0825C161.784 27.3825 185.145 17.8205 188.989 17.1235C190.274 16.8905 192.264 16.1965 193.412 15.5825C194.561 14.9675 195.5 14.7175 195.5 15.0255C195.5 15.3345 196.892 14.8675 198.593 13.9875C200.294 13.1075 201.906 12.6075 202.174 12.8765C202.443 13.1455 204.201 12.7225 206.082 11.9365C207.962 11.1515 209.5 10.7555 209.5 11.0575C209.5 11.3585 210.398 11.1255 211.496 10.5375C212.595 9.94952 215.857 9.03052 218.746 8.49552C221.636 7.95952 224.9 7.32352 226 7.08052C236.284 4.81252 242.936 3.60052 248 3.07052C251.3 2.72552 254.9 2.17052 256 1.83852Z" fill="url(#paint0_linear)"/>
<path d="M247 128.007C246.45 128.179 243.3 129.086 240 130.024C230.144 132.824 215.882 140.512 207.966 147.291C199.385 154.64 193.174 162.57 188.507 172.137C180.311 188.937 179.5 194.407 179.5 232.846V263.536H219.5H259.5V225.036V186.536H243.406H227.312L228.023 181.286C229.172 172.795 233.539 164.47 240.369 157.744C246.579 151.63 254.105 146.536 256.928 146.536C259.277 146.536 258.894 144.839 254.5 135.782C250.813 128.18 249.801 127.131 247 128.007Z" fill="url(#paint1_linear)"/>
<path d="M351.143 130.013C334.168 135.071 318.84 145.053 308.567 157.74C302.685 165.004 296.078 177.165 294.519 183.598C293.928 186.039 293.269 188.711 293.055 189.536C290.883 197.929 290.546 203.55 290.524 231.786L290.5 263.536H330.5H370.5V225.036V186.536H354.124H337.748L339.182 180.286C339.97 176.849 340.849 173.136 341.133 172.036C342.996 164.844 359.801 148.332 366.75 146.866C370.144 146.15 370.15 145.422 366.822 138.536C364.614 133.969 364.06 132.853 363.634 131.691C363.443 131.17 363.277 130.64 362.999 129.786C362.103 127.034 361.074 127.054 351.143 130.013Z" fill="url(#paint2_linear)"/>
<defs>
<linearGradient id="paint0_linear" x1="300.753" y1="0" x2="300.753" y2="555.397" gradientUnits="userSpaceOnUse">
<stop offset="0.429167"/>
<stop offset="0.429267" stop-color="white"/>
</linearGradient>
<linearGradient id="paint1_linear" x1="300.753" y1="0" x2="300.753" y2="555.397" gradientUnits="userSpaceOnUse">
<stop offset="0.429167"/>
<stop offset="0.429267" stop-color="white"/>
</linearGradient>
<linearGradient id="paint2_linear" x1="300.753" y1="0" x2="300.753" y2="555.397" gradientUnits="userSpaceOnUse">
<stop offset="0.429167"/>
<stop offset="0.429267" stop-color="white"/>
</linearGradient>
</defs>
</svg>
