<svg width="162" height="162" viewBox="0 0 162 162" fill="none" xmlns="http://www.w3.org/2000/svg">
<path d="M106.542 81H152.55C156.279 81 159.3 77.9787 159.3 74.25C159.3 70.5213 156.279 67.5 152.55 67.5H81L74.25 74.25L81 81H94.5" stroke="#EF0000" stroke-width="2" stroke-miterlimit="10"/>
<path d="M144.407 124.2C148.492 114.242 151.311 105.524 151.2 94.5V81" stroke="#EF0000" stroke-width="2" stroke-miterlimit="10"/>
<path d="M121.5 62.1V67.5" stroke="#EF0000" stroke-width="2" stroke-miterlimit="10"/>
<path d="M121.5 81L121.503 94.9806C121.503 96.336 120.409 97.2 119.286 97.2C118.633 97.2 117.949 96.9219 117.482 96.2712L104.304 77.8734C103.129 76.221 101.047 75.2571 98.7849 75.7107C96.7869 76.1103 95.1156 77.7168 94.6512 79.7013C94.311 81.162 94.5621 82.5525 95.2155 83.6865L108.629 107.023C111.402 111.845 118.012 120.317 122.229 124.2" stroke="#EF0000" stroke-width="2" stroke-miterlimit="10"/>
<path d="M98.9172 67.5L116.043 53.5464C117.825 52.0938 120.056 51.3 122.356 51.3C123.574 51.3 124.783 51.5268 125.92 51.9615L142.735 58.3956C145.273 59.3676 147.352 61.2603 148.557 63.6957L150.441 67.5" stroke="#EF0000" stroke-width="2" stroke-miterlimit="10"/>
<path d="M30.2103 27.7101L100.313 13.3326L109.906 58.5468" stroke="#EF0000" stroke-width="2" stroke-miterlimit="10"/>
<path d="M112.928 22.0104L116.724 39.9195" stroke="#EF0000" stroke-width="2" stroke-miterlimit="10"/>
<path d="M110.06 8.47531L111.618 15.822" stroke="#EF0000" stroke-width="2" stroke-miterlimit="10"/>
<path d="M27.3024 129.114L7.3413 32.4L23.8545 29.0142" stroke="#EF0000" stroke-width="2" stroke-miterlimit="10"/>
<path d="M14.4531 118.39L10.7136 100.443" stroke="#EF0000" stroke-width="2" stroke-miterlimit="10"/>
<path d="M22.2669 155.903L15.7599 124.659" stroke="#EF0000" stroke-width="2" stroke-miterlimit="10"/>
<path d="M108 137.635L32.4 153.808L28.6011 135.402" stroke="#EF0000" stroke-width="2" stroke-miterlimit="10"/>
<path d="M25 65L91 51" stroke="#EF0000" stroke-width="2" stroke-miterlimit="10"/>
<path d="M23 56L89 42" stroke="#EF0000" stroke-width="2" stroke-miterlimit="10"/>
<path d="M21 47L87 33" stroke="#EF0000" stroke-width="2" stroke-miterlimit="10"/>
<path d="M108 145.8V129.6C108 126.617 110.416 124.2 113.4 124.2H151.2C154.183 124.2 156.6 126.617 156.6 129.6V145.8" stroke="#EF0000" stroke-width="2" stroke-miterlimit="10"/>
<path d="M121.5 132.3H116.1V137.7H121.5V132.3Z" fill="#EF0000"/>
<path d="M36 106L88 94" stroke="#EF0000" stroke-width="2" stroke-miterlimit="10"/>
<path d="M33 97L85 85" stroke="#EF0000" stroke-width="2" stroke-miterlimit="10"/>
<path d="M31 87L78 76" stroke="#EF0000" stroke-width="2" stroke-miterlimit="10"/>
<path d="M81 129.6H75.6V135H81V129.6Z" fill="#EF0000"/>
<path d="M94.5 126.9H89.1V132.3H94.5V126.9Z" fill="#EF0000"/>
<path d="M67.5 132.3H62.1V137.7H67.5V132.3Z" fill="#EF0000"/>
</svg>
