<svg width="162" height="162" viewBox="0 0 162 162" fill="none" xmlns="http://www.w3.org/2000/svg">
<path d="M72.9 35.1H5.40001C3.90961 35.1 2.70001 33.8904 2.70001 32.4V24.3C2.70001 22.8096 3.90961 21.6 5.40001 21.6H70.2" stroke="#EF0000" stroke-width="2" stroke-miterlimit="10"/>
<path d="M8.10001 35.1V97.2C8.10001 98.6904 9.30961 99.9 10.8 99.9H62.1" stroke="#EF0000" stroke-width="2" stroke-miterlimit="10"/>
<path d="M16.2 45.9H29.7" stroke="#EF0000" stroke-width="2" stroke-miterlimit="10"/>
<path d="M16 57H48" stroke="#EF0000" stroke-width="2" stroke-miterlimit="10"/>
<path d="M16 68H62" stroke="#EF0000" stroke-width="2" stroke-miterlimit="10"/>
<path d="M15 78H61" stroke="#EF0000" stroke-width="2" stroke-miterlimit="10"/>
<path d="M15 89H61" stroke="#EF0000" stroke-width="2" stroke-miterlimit="10"/>
<path d="M10.8 108H5.39999V113.4H10.8V108Z" fill="#EF0000"/>
<path d="M21.6 108H16.2V113.4H21.6V108Z" fill="#EF0000"/>
<path d="M32.4 108H27V113.4H32.4V108Z" fill="#EF0000"/>
<path d="M145.8 151.2H156.735C158.152 151.2 159.3 149.99 159.3 148.5V135C159.3 133.51 158.152 132.3 156.735 132.3H59.265C57.8475 132.3 56.7 133.51 56.7 135V148.5C56.7 149.99 57.8475 151.2 59.265 151.2H118.8" stroke="#EF0000" stroke-width="2" stroke-miterlimit="10"/>
<path d="M140.4 151.2H135" stroke="#EF0000" stroke-width="2" stroke-miterlimit="10"/>
<path d="M129.6 151.2H124.2" stroke="#EF0000" stroke-width="2" stroke-miterlimit="10"/>
<path d="M99.9 71.0802V81L92.3697 82.3689C79.5312 84.7044 70.2 95.8851 70.2 108.934V124.2" stroke="#EF0000" stroke-width="2" stroke-miterlimit="10"/>
<path d="M116.1 71.0802V81L123.63 82.3689C136.469 84.7044 145.8 95.8851 145.8 108.934V124.2" stroke="#EF0000" stroke-width="2" stroke-miterlimit="10"/>
<path d="M127.194 83.2707L112.474 97.9911C111.251 99.2142 109.728 99.9 108 99.9C106.272 99.9 104.479 99.2142 103.256 97.9911L88.6032 83.3382" stroke="#EF0000" stroke-width="2" stroke-miterlimit="10"/>
<path d="M78.3 108H94.5" stroke="#EF0000" stroke-width="2" stroke-miterlimit="10"/>
<path d="M89.1 51.3V36.4446" stroke="#EF0000" stroke-width="2" stroke-miterlimit="10"/>
<path d="M110.7 108H105.3V113.4H110.7V108Z" fill="#EF0000"/>
<path d="M110.7 118.8H105.3V124.2H110.7V118.8Z" fill="#EF0000"/>
<path d="M102.6 37.8H95.1399C87.3315 37.8 81 31.4685 81 23.6601C81 20.4201 82.5984 14.9742 83.808 12.1608C84.159 11.3454 84.8421 10.8 85.6548 10.8C85.9734 10.8 86.2974 10.8864 86.5971 11.0646C96.795 17.0721 98.8389 18.9 103.731 18.9C111.278 18.9 112.822 16.2 120.369 16.2C126.959 16.2 132.3 21.5406 132.3 28.1313C132.3 32.5944 130.056 37.3464 126.9 40.5V54C126.9 64.4382 118.438 72.9 108 72.9C97.5618 72.9 89.1 64.4382 89.1 54V48.6" stroke="#EF0000" stroke-width="2" stroke-miterlimit="10"/>
</svg>
