<svg width="160" height="160" viewBox="0 0 160 160" fill="none" xmlns="http://www.w3.org/2000/svg">
<path d="M45.3333 34.6667V22.2613" stroke="#EF0000" stroke-width="2" stroke-miterlimit="10"/>
<path d="M56 26.6667C48.7493 26.6667 42.6667 22.4987 42.6667 14.2773C42.6667 10.6667 45.3333 8 45.3333 8C45.3333 8 50.6667 13.3333 58.6667 13.3333H62.4427C70.6667 13.3333 77.3333 20 77.3333 28.2213V40C77.3333 48.8347 70.168 56 61.3333 56C52.496 56 45.3333 48.8347 45.3333 40V32" stroke="#EF0000" stroke-width="2" stroke-miterlimit="10"/>
<path d="M69.3333 64C69.3333 64 66.6667 69.3333 61.3333 69.3333C56 69.3333 53.3333 64 53.3333 64" stroke="#EF0000" stroke-width="2" stroke-miterlimit="10"/>
<path d="M53.3333 53.8586V64L33.464 71.9466C29.152 73.6693 25.8213 77.2053 24.3547 81.608L12.56 116.984C11.3067 120.747 10.6667 124.691 10.6667 128.656C10.6667 134.184 15.1493 138.667 20.6773 138.667C21.1147 138.667 21.552 138.637 21.984 138.581L62.608 133.232C66.4427 132.725 69.3333 129.32 69.3333 125.333C69.3333 120.915 65.7493 117.333 61.3333 117.333C61.1173 117.333 60.8987 117.341 60.688 117.36L27.2453 120.032" stroke="#EF0000" stroke-width="2" stroke-miterlimit="10"/>
<path d="M69.3333 53.8586V64L89.2053 71.9466C92.9707 73.4533 95.9893 76.3413 97.672 79.9893" stroke="#EF0000" stroke-width="2" stroke-miterlimit="10"/>
<path d="M41.1093 99.3333L34.2667 119.469" stroke="#EF0000" stroke-width="2" stroke-miterlimit="10"/>
<path d="M68.8853 128H149.333V136C149.333 140.419 145.749 144 141.333 144H58.6667C54.248 144 50.6667 140.419 50.6667 136V134.805" stroke="#EF0000" stroke-width="2" stroke-miterlimit="10"/>
<path d="M56 117.733V88C56 83.5813 59.5813 80 64 80H136C140.416 80 144 83.5813 144 88V128" stroke="#EF0000" stroke-width="2" stroke-miterlimit="10"/>
<path d="M138.667 136V144" stroke="#EF0000" stroke-width="2" stroke-miterlimit="10"/>
<path d="M128 136V144" stroke="#EF0000" stroke-width="2" stroke-miterlimit="10"/>
<path d="M117.333 136V144" stroke="#EF0000" stroke-width="2" stroke-miterlimit="10"/>
<path d="M128 154.667H122.667" stroke="#EF0000" stroke-width="2" stroke-miterlimit="10"/>
<path d="M117.333 154.667H66.6667" stroke="#EF0000" stroke-width="2" stroke-miterlimit="10"/>
<path d="M64 90.6667H85.3333" stroke="#EF0000" stroke-width="2" stroke-miterlimit="10"/>
<path d="M90.6667 90.6667H96" stroke="#EF0000" stroke-width="2" stroke-miterlimit="10"/>
<path d="M64 101.333H96" stroke="#EF0000" stroke-width="2" stroke-miterlimit="10"/>
<path d="M136 48H141.333C144.277 48 146.667 45.6107 146.667 42.6667V18.6667C146.667 15.7227 144.277 13.3333 141.333 13.3333H96C93.056 13.3333 90.6667 15.7227 90.6667 18.6667V54.7413C90.6667 55.752 91.7973 56.3493 92.6293 55.7787L103.987 48H120" stroke="#EF0000" stroke-width="2" stroke-miterlimit="10"/>
<path d="M98.6667 24H120" stroke="#EF0000" stroke-width="2" stroke-miterlimit="10"/>
<path d="M125.333 24H130.667" stroke="#EF0000" stroke-width="2" stroke-miterlimit="10"/>
<path d="M98.6667 34.6667H138.667" stroke="#EF0000" stroke-width="2" stroke-miterlimit="10"/>
<path d="M125.333 48H130.667" stroke="#EF0000" stroke-width="2" stroke-miterlimit="10"/>
<path d="M5.33333 61.3333H18.6667" stroke="#EF0000" stroke-width="2" stroke-miterlimit="10"/>
<path d="M9.07735 40.9014L21.016 44.0987" stroke="#EF0000" stroke-width="2" stroke-miterlimit="10"/>
<path d="M18.6293 22.824L28.8747 28.736" stroke="#EF0000" stroke-width="2" stroke-miterlimit="10"/>
<path d="M110.578 107.711L116.691 110.182V112.096L108.703 108.395V106.969L116.691 103.277V105.191L110.578 107.711ZM119.904 115.221H118.352L124.289 99.7812H125.832L119.904 115.221ZM134.182 107.652L127.727 105.123V103.268L136.066 106.959V108.385L127.727 112.086V110.211L134.182 107.652Z" fill="#EF0000"/>
</svg>
